control3min_grf.mot
version=1
nRows=15
nColumns 19
inDegrees=yes
endheader
time	1_ground_force_vx	1_ground_force_vy	1_ground_force_vz	1_ground_force_px	1_ground_force_py	1_ground_force_pz	1_ground_torque_x	1_ground_torque_y	1_ground_torque_z	2_ground_force_vx	2_ground_force_vy	2_ground_force_vz	2_ground_force_px	2_ground_force_py	2_ground_force_pz	2_ground_torque_x	2_ground_torque_y	2_ground_torque_z
            2.502500	            3.580683	          326.869198	           -9.521428	           -0.131020	            0.006349	           -0.430342	            0.006833	            0.623749	           -0.018169	            5.445291	          374.908035	           13.254622	           -0.140017	            0.005912	           -0.679276	           -0.011901	           -0.819372	           -0.028968
            2.503000	            3.536621	          322.721278	           -9.126389	           -0.131171	            0.006350	           -0.430559	            0.006528	            0.595668	           -0.016845	            5.320672	          370.488135	           13.191984	           -0.139623	            0.005913	           -0.678958	           -0.012567	           -0.875065	           -0.031158
            2.503500	            3.583691	          319.114991	           -8.912683	           -0.131370	            0.006347	           -0.429921	            0.005898	            0.525196	           -0.014668	            5.759478	          365.702759	           12.893152	           -0.139596	            0.005911	           -0.678579	           -0.013917	           -0.883688	           -0.031155
            2.504000	            3.814055	          314.067203	           -8.843183	           -0.131084	            0.006349	           -0.430387	            0.005280	            0.434816	           -0.012243	            5.910538	          362.757898	           12.601011	           -0.139686	            0.005912	           -0.678868	           -0.012697	           -0.779264	           -0.027069
            2.504500	            3.999454	          309.198130	           -8.405949	           -0.130790	            0.006350	           -0.430653	            0.005189	            0.401162	           -0.010906	            5.787309	          357.969215	           12.677843	           -0.139400	            0.005912	           -0.678525	           -0.011481	           -0.710178	           -0.025152
            2.505000	            4.183958	          304.871199	           -8.287387	           -0.130414	            0.006351	           -0.430842	            0.005975	            0.435397	           -0.011836	            5.567641	          353.917425	           12.569631	           -0.139567	            0.005912	           -0.678709	           -0.010301	           -0.654817	           -0.023256
            2.505500	            4.276823	          300.904585	           -8.121196	           -0.131158	            0.006349	           -0.430316	            0.007279	            0.512101	           -0.013821	            5.911479	          349.499552	           12.412938	           -0.139356	            0.005911	           -0.678370	           -0.012957	           -0.766026	           -0.027206
            2.506000	            4.140977	          297.297476	           -7.723611	           -0.130887	            0.006349	           -0.430423	            0.007101	            0.509787	           -0.013244	            5.830448	          346.000083	           12.494350	           -0.139344	            0.005912	           -0.678535	           -0.012494	           -0.741449	           -0.026774
            2.506500	            4.416809	          292.430522	           -7.791020	           -0.130749	            0.006351	           -0.430905	            0.007253	            0.480210	           -0.012794	            5.891940	          341.948807	           12.526803	           -0.139395	            0.005912	           -0.678513	           -0.013653	           -0.792350	           -0.029027
            2.507000	            4.464808	          288.101795	           -7.259414	           -0.130380	            0.006352	           -0.430921	            0.006963	            0.449286	           -0.011321	            5.998932	          338.266209	           12.513622	           -0.139224	            0.005913	           -0.678654	           -0.013084	           -0.737782	           -0.027293
            2.507500	            4.420372	          284.134762	           -7.001169	           -0.130544	            0.006350	           -0.430494	            0.005715	            0.367350	           -0.009052	            6.341380	          334.217119	           12.217459	           -0.138947	            0.005912	           -0.678236	           -0.013310	           -0.701493	           -0.025643
            2.508000	            4.512896	          280.168738	           -6.972546	           -0.130078	            0.006351	           -0.430756	            0.006061	            0.376282	           -0.009365	            6.171240	          329.428768	           12.153527	           -0.138743	            0.005910	           -0.677453	           -0.011504	           -0.614098	           -0.022656
            2.508500	            4.605549	          276.743149	           -6.849892	           -0.130616	            0.006350	           -0.430460	            0.006662	            0.400294	           -0.009908	            6.324417	          325.930420	           12.140983	           -0.138953	            0.005912	           -0.678083	           -0.012112	           -0.624180	           -0.023251
            2.509000	            4.606761	          272.596222	           -6.684247	           -0.130365	            0.006350	           -0.430550	            0.006276	            0.371388	           -0.009107	            6.288866	          322.799737	           12.129833	           -0.138810	            0.005913	           -0.678318	           -0.011585	           -0.594665	           -0.022346
            2.509500	            4.883127	          269.170078	           -6.424480	           -0.130608	            0.006349	           -0.430357	            0.008143	            0.448861	           -0.010713	            6.213070	          317.827751	           12.018276	           -0.138459	            0.005911	           -0.677316	           -0.014353	           -0.734217	           -0.027764
